<?xml version="1.0" standalone="no"?><!DOCTYPE svg PUBLIC "-//W3C//DTD SVG 1.1//EN" "http://www.w3.org/Graphics/SVG/1.1/DTD/svg11.dtd"><svg t="1630300347381" class="icon" viewBox="0 0 1024 1024" version="1.1" xmlns="http://www.w3.org/2000/svg" p-id="6692" xmlns:xlink="http://www.w3.org/1999/xlink" width="200" height="200"><defs><style type="text/css"></style></defs><path d="M689.516 847.013c-9.757 0-20.76-2.812-30.969-7.915l-145.473-72.745-146.387 72.64c-9.285 4.933-19.894 7.537-30.705 7.537-14.203 0-28.077-4.543-39.065-12.782-20.495-15.371-31-41.981-26.15-66.227l29.953-155.332-114.761-106.971c-17.656-17.659-24.657-44.474-17.84-68.327l0.243-0.79c8.333-24.993 29.04-42.526 54.127-45.884l159.44-28.991 71.557-145.352c11.5-23.008 34.887-37.806 59.616-37.806 25.796 0 49.757 15.333 59.814 38.21l71.33 144.885 159.486 27.879c25.143 3.525 46.382 22.101 53.119 46.42 7.856 24.229 1.522 50.453-16.595 68.57l-0.404 0.393-114.424 107.757 28.897 155.593c4.662 24.882-5.224 50.025-25.824 65.688-10.679 8.743-24.514 13.55-38.985 13.55zM513.14 724.031l162.357 81.182c4.766 2.384 10.268 3.914 14.023 3.914 5.808 0 11.172-1.804 15.104-5.075l0.76-0.609c9.237-6.924 13.714-17.92 11.695-28.71l-32.68-175.951 129.24-121.71c7.901-8.034 10.62-19.564 7.088-30.163l-0.334-1.109c-2.694-10.115-11.572-17.853-22.087-19.257l-0.751-0.119-178.789-31.257-80.448-163.448c-3.907-9.129-14.513-15.75-25.21-15.75-10.507 0-20.585 6.58-25.677 16.754l-79.938 162.37-179.737 32.652c-10.926 1.363-19.397 8.621-23.315 19.94-2.784 10.334 0.518 22.786 8.107 30.54l129.343 120.55-33.951 176.053c-2.04 10.21 2.784 21.924 11.708 28.612 4.473 3.361 10.272 5.2 16.334 5.2 4.679 0 9.191-1.088 13.046-3.174l0.563-0.288 163.55-81.147z" fill="#8A8A8A" p-id="6693"></path><path d="M689.339 486.857a8.134 8.134 0 0 1-1.505-0.136L569.84 466.094l-52.81-107.27a8.715 8.715 0 0 1 15.636-7.703l48.895 99.323 109.276 19.105a8.711 8.711 0 0 1 7.078 10.085 8.718 8.718 0 0 1-8.576 7.223z" fill="#8A8A8A" p-id="6694"></path></svg>