<?xml version="1.0" standalone="no"?><!DOCTYPE svg PUBLIC "-//W3C//DTD SVG 1.1//EN" "http://www.w3.org/Graphics/SVG/1.1/DTD/svg11.dtd"><svg t="1630386931371" class="icon" viewBox="0 0 1024 1024" version="1.1" xmlns="http://www.w3.org/2000/svg" p-id="3989" xmlns:xlink="http://www.w3.org/1999/xlink" width="200" height="200"><defs><style type="text/css"></style></defs><path d="M512.001535 64.621786c-247.079328 0-447.378214 200.301955-447.378214 447.381284s200.299909 447.37412 447.378214 447.37412c247.076258 0 447.376167-200.293769 447.376167-447.37412 0.005117-247.079328-200.299909-447.381283-447.376167-447.381284zM392.446625 832.703139c-0.441045 8.742105-5.248537 13.549597-14.429641 14.431688-6.999414 0-12.688997-0.656963-17.055444-1.971911-4.815679-1.749854-6.998391-5.240351-6.558369-10.491959 1.74269-5.245468 5.021364-7.647167 9.839089-7.214309 7.430226 1.74883 10.923794 0.659009 10.494005-3.276626V720.54571h-13.119809c-4.815679-0.427742-7.213285-3.491521-7.213285-9.181103 0.430812-5.251607 3.053546-8.084119 7.871271-8.529257h38.697347c2.622734 0 4.366448 1.095961 5.245468 3.277649 1.311879-3.047406 3.710508-4.800329 7.216355-5.245467h87.888699c4.805446 0.445138 7.215332 3.502777 7.215332 9.181103-0.441045 5.689582-3.063779 8.759501-7.870247 9.187243h-39.352264l-2.625803 12.459776h25.581631c10.924817-0.428765 15.956414 4.158716 15.084557 13.773702v67.556628c-0.438998 4.817726-3.502777 7.443529-9.182127 7.871272-5.686513-0.427742-8.753361-3.053546-9.181103-7.871272V752.030795c0-1.308809-0.657986-1.967818-1.967818-1.967818h-46.568618a4.236488 4.236488 0 0 0-1.967818 1.967818v59.685357c-0.441045 5.245468-3.504824 8.095375-9.18315 8.529258-5.687536-0.433882-8.751315-3.28379-9.181103-8.529258v-66.245773c0-9.182127 3.935636-13.773701 11.806907-13.773701h15.739473l3.280719-12.459777h-27.549449c-2.622734 0-5.472642-1.085728-8.526187-3.277649-1.312902 3.063779-3.721765 4.592598-7.213286 4.592598h-7.215332v112.151289z m114.77914 13.115716c-3.502777 5.245468-8.094352 6.122441-13.770632 2.625804-3.063779-1.314948-8.098445-4.15974-15.087626-8.529258-6.558369-3.502777-11.589966-5.903453-15.084557-7.213285-6.558369-3.052522-9.181103-6.77531-7.871271-11.149944-1.309832 2.192945-3.935636 4.818749-7.871271 7.866154-0.437975 0.445138-0.87902 0.88823-1.309832 1.315972-10.063193 8.29799-21.644973 14.859429-34.761712 19.677155-6.127558 1.74269-10.496052 0.213871-13.118785-4.593621-1.750877-5.244444 0-9.181103 5.247514-11.805884 20.104897-8.299013 32.352849-16.613376 36.729529-24.922623 4.804423-7.870248 7.213285-22.51683 7.213286-43.942814 0.430812-6.117324 3.28072-9.401114 8.52721-9.838066 5.678326 0.437975 8.742105 3.721765 9.18315 9.838066 0.86981 22.296819-1.753947 39.355333-7.871271 51.1561 4.366448-5.245468 10.05296-5.460362 17.052374-0.659009 5.248537 3.070942 12.236696 7.006578 20.98801 11.806907 3.935636 2.625804 6.774287 4.379751 8.527211 5.251607 5.248537 3.053546 6.332219 7.432273 3.278673 13.116739z m81.989339-1.961678h-44.6008c-8.311293-0.445138-12.688997-4.16588-13.118786-11.154038v-36.730552c-0.442068-9.608845 3.935636-14.201443 13.118786-13.773702h45.910632c8.30413-0.427742 12.463869 4.164856 12.46387 13.773702v37.387515c0.427742 6.988158-4.15974 10.497075-13.773702 10.497075z m62.305021-5.251608c-6.994298 0-12.458753-0.88209-16.394388-2.620687-4.373611-2.197038-5.689582-5.678326-3.935636-10.497075 1.74269-5.244444 5.464455-7.212262 11.148921-5.903453 11.80793 2.625804 16.827247-1.973958 15.084557-13.773702-0.438998-8.742105-6.341429-19.677155-17.709337-32.793893-3.936659-3.936659-4.588505-9.839089-1.968841-17.710361 4.807493-14.859429 8.085142-26.233478 9.839089-34.104749h-17.710361c-1.308809 0-2.192945 0.87595-2.620687 2.619664v118.060883c-0.438998 5.678326-3.282766 8.743128-8.529257 9.181103-5.684466-0.437975-8.753361-3.502777-9.181103-9.181103v-69.523423c-1.314948 1.753947-3.062755 2.625804-5.250584 2.625803h-74.111928c-4.817726-0.433882-7.441483-3.497661-7.871272-9.188266 0.429789-5.678326 3.053546-8.735965 7.871272-9.181103h15.742542c-0.88209-0.871857-3.935636-6.117324-9.185196-15.741519-2.192945-5.679349-0.654916-9.609869 4.590551-11.806907h-7.871271c-4.813632-0.427742-7.438413-3.490497-7.867178-9.182127 0.429789-5.678326 3.053546-8.742105 7.867178-9.181103h23.614837c-0.883113-1.308809-1.310855-2.62478-1.310855-3.940752-1.314948-4.363378 0.652869-7.866155 5.903453-10.491959 6.117324-2.181689 10.051937-1.084705 11.805884 3.278673 1.309832 3.935636 2.835581 7.656377 4.588505 11.148921h21.644973c4.806469 0.444115 7.432273 3.507894 7.870248 9.18622-0.438998 5.691629-3.063779 8.749268-7.870248 9.182127h-50.504254c3.052522 1.753947 6.77531 7.871271 11.149944 18.366299 1.314948 4.374634 0.870834 7.439436-1.310855 9.182127h14.43271c0.427742-1.308809 1.080611-3.052522 1.968841-5.244444 2.620687-6.561439 4.363378-11.806907 5.240351-15.742543 1.74269-4.369517 5.464455-6.117324 11.153015-5.251607 5.245468 2.192945 7.213285 5.689582 5.904476 10.497075-0.88209 2.192945-1.753947 4.816702-2.625803 7.870248a430.518221 430.518221 0 0 1-3.27765 8.529257h11.806907c2.620687 0 4.363378 0.651846 5.245468 1.967818v-44.606941c0-8.736988 3.27765-12.886495 9.838065-12.45773h39.356357c10.051937 0 13.987572 5.474688 11.800767 16.393366 0 0.445138-1.090844 4.16588-3.272533 11.155061-3.508917 10.93505-5.904477 19.019169-7.219426 24.264636-1.308809 3.935636-1.967818 6.786567-1.967817 8.529257 0.427742 1.308809 1.74269 3.276626 3.935635 5.903454 9.187243 13.999852 14.202467 27.115568 15.084557 39.349193 0.432859 20.129456-7.865131 30.395264-24.922623 30.834262z m34.687011-375.4623c-8.005324 7.967462-20.122293 8.173147-27.42563 0.8606-0.577145-0.573051-1.156336-0.983397-1.647523-1.641383l-125.078716-124.833123-0.204662 299.555493c0 9.770528-9.196453 17.695011-20.530592 17.695011s-20.039405-7.924483-20.039405-17.695011c0-0.779759-0.122797-1.393743 0-2.175549l-0.205685-297.379944L366.037139 462.36351c-0.451278 0.696872-1.023306 1.068332-1.641383 1.641383-7.309476 7.352455-19.423375 7.145747-27.430746-0.860601-8.007371-8.007371-8.581446-20.450774-1.233084-27.800159l158.217464-158.585855a19.338441 19.338441 0 0 1 10.020215-7.841596c2.216481-0.86367 4.555759-1.233084 6.980994-1.190105 0.245593 0 0.408299-0.124843 0.654916-0.124843 0.165776 0 0.328481 0.082888 0.491187 0.082888a17.895579 17.895579 0 0 1 7.187703 1.233084c4.270257 1.520633 7.636934 4.352121 9.895371 7.720845l158.261467 158.706605c7.348362 7.308453 6.770194 19.790742-1.234107 27.798113z m-11.004635-244.039086H349.201705c-10.058077 0-18.231223-8.087189-18.231223-18.025538s8.173147-18.027585 18.231223-18.027586h326.001819c10.100032 0 18.23327 8.090259 18.23327 18.027586-0.005117 9.93835-8.176217 18.025539-18.234293 18.025538z" p-id="3990" fill="#d4237a"></path><path d="M581.995679 800.566208h-30.169113c-1.313925 0-2.191922 0.87595-2.619664 2.620687v20.334118c0.427742 1.753947 1.309832 2.625804 2.619664 2.625803h30.169113c1.74269-0.433882 2.623757-1.314948 2.623757-2.625803v-20.334118c0.001023-1.743714-0.881067-2.620687-2.623757-2.620687z" p-id="3991" fill="#d4237a"></path></svg>